SplineFontDB: 3.2
FontName: Untitled1
FullName: Untitled1
FamilyName: Untitled1
Weight: Regular
Copyright: Copyright (c) 2025, Bastien
UComments: "2025-5-18: Created with FontForge (http://fontforge.org)"
Version: 001.000
ItalicAngle: 0
UnderlinePosition: -100
UnderlineWidth: 50
Ascent: 800
Descent: 200
InvalidEm: 0
LayerCount: 2
Layer: 0 0 "Arri+AOgA-re" 1
Layer: 1 0 "Avant" 0
XUID: [1021 365 -1140549984 746250]
OS2Version: 0
OS2_WeightWidthSlopeOnly: 0
OS2_UseTypoMetrics: 1
CreationTime: 1747598924
ModificationTime: 1747598924
OS2TypoAscent: 0
OS2TypoAOffset: 1
OS2TypoDescent: 0
OS2TypoDOffset: 1
OS2TypoLinegap: 0
OS2WinAscent: 0
OS2WinAOffset: 1
OS2WinDescent: 0
OS2WinDOffset: 1
HheadAscent: 0
HheadAOffset: 1
HheadDescent: 0
HheadDOffset: 1
OS2Vendor: 'PfEd'
DEI: 91125
Encoding: ISO8859-1
UnicodeInterp: none
NameList: AGL For New Fonts
DisplaySize: -48
AntiAlias: 1
FitToEm: 0
BeginChars: 256 33

StartChar: A
Encoding: 65 65 0
Width: 605
Flags: HW
LayerCount: 2
Fore
SplineSet
302.404296875 702.241210938 m 1
 333.62109375 702.241210938 l 1
 583.349609375 19.3916015625 l 1
 505.309570312 19.3916015625 l 1
 306.306640625 624.201171875 l 1
 302.404296875 663.221679688 l 1
 302.404296875 702.241210938 l 1
302.404296875 702.241210938 m 1
 302.404296875 663.221679688 l 1
 298.502929688 624.201171875 l 1
 99.5 19.3916015625 l 1
 21.4599609375 19.3916015625 l 1
 271.188476562 702.241210938 l 1
 302.404296875 702.241210938 l 1
133.05859375 255.46484375 m 1
 471.750976562 255.46484375 l 1
 471.750976562 193.033203125 l 1
 133.05859375 193.033203125 l 1
 133.05859375 255.46484375 l 1
-0.5439453125 19.935546875 m 1
 -0.5439453125 18.84765625 l 1
 605.352539062 18.84765625 l 1
 605.352539062 19.935546875 l 1
 -0.5439453125 19.935546875 l 1
-0.5439453125 800.336914062 m 1
 -0.5439453125 799.249023438 l 1
 605.352539062 799.249023438 l 1
 605.352539062 800.336914062 l 1
 -0.5439453125 800.336914062 l 1
-0.5439453125 -198.577148438 m 1
 -0.5439453125 -199.665039062 l 1
 605.352539062 -199.665039062 l 1
 605.352539062 -198.577148438 l 1
 -0.5439453125 -198.577148438 l 1
-0.5439453125 -199.665039062 m 1
 0.5439453125 -199.665039062 l 1
 0.5439453125 800.336914062 l 1
 -0.5439453125 800.336914062 l 1
 -0.5439453125 -199.665039062 l 1
604.264648438 -199.665039062 m 1
 605.352539062 -199.665039062 l 1
 605.352539062 800.336914062 l 1
 604.264648438 800.336914062 l 1
 604.264648438 -199.665039062 l 1
EndSplineSet
EndChar

StartChar: B
Encoding: 66 66 1
Width: 596
Flags: HW
LayerCount: 2
Fore
SplineSet
78.0400390625 639.809570312 m 1
 78.0400390625 702.241210938 l 1
 318.356445312 702.241210938 l 2
 438.90234375 702.241210938 526.969726562 646.720703125 526.969726562 534.458984375 c 0
 526.969726562 424.005859375 438.051757812 371.869140625 318.356445312 371.869140625 c 1
 318.356445312 413.491210938 l 1
 396.615234375 413.491210938 448.9296875 458.206054688 448.9296875 534.458984375 c 0
 448.9296875 604.842773438 393.862304688 639.809570312 318.356445312 639.809570312 c 2
 78.0400390625 639.809570312 l 1
78.0400390625 413.491210938 m 1
 318.356445312 413.491210938 l 1
 318.356445312 351.05859375 l 1
 78.0400390625 351.05859375 l 1
 78.0400390625 413.491210938 l 1
318.356445312 351.05859375 m 1
 318.356445312 392.680664062 l 1
 439.217773438 392.680664062 523.651367188 329.748046875 523.651367188 214.4921875 c 0
 523.651367188 92.6533203125 442.329101562 19.3916015625 318.356445312 19.3916015625 c 2
 117.060546875 19.3916015625 l 1
 117.060546875 81.82421875 l 1
 318.356445312 81.82421875 l 2
 397.564453125 81.82421875 445.611328125 134.150390625 445.611328125 214.4921875 c 0
 445.611328125 296.48046875 398.399414062 351.05859375 318.356445312 351.05859375 c 1
78.0400390625 702.241210938 m 1
 156.080078125 702.241210938 l 1
 156.080078125 19.3916015625 l 1
 78.0400390625 19.3916015625 l 1
 78.0400390625 702.241210938 l 1
-0.5439453125 19.935546875 m 1
 -0.5439453125 18.84765625 l 1
 595.599609375 18.84765625 l 1
 595.599609375 19.935546875 l 1
 -0.5439453125 19.935546875 l 1
-0.5439453125 800.336914062 m 1
 -0.5439453125 799.249023438 l 1
 595.599609375 799.249023438 l 1
 595.599609375 800.336914062 l 1
 -0.5439453125 800.336914062 l 1
-0.5439453125 -198.577148438 m 1
 -0.5439453125 -199.665039062 l 1
 595.599609375 -199.665039062 l 1
 595.599609375 -198.577148438 l 1
 -0.5439453125 -198.577148438 l 1
-0.5439453125 -199.665039062 m 1
 0.5439453125 -199.665039062 l 1
 0.5439453125 800.336914062 l 1
 -0.5439453125 800.336914062 l 1
 -0.5439453125 -199.665039062 l 1
594.51171875 -199.665039062 m 1
 595.599609375 -199.665039062 l 1
 595.599609375 800.336914062 l 1
 594.51171875 800.336914062 l 1
 594.51171875 -199.665039062 l 1
EndSplineSet
EndChar

StartChar: C
Encoding: 67 67 2
Width: 591
Flags: HW
LayerCount: 2
Fore
SplineSet
522.896484375 568.723632812 m 1
 476.3125 619.022460938 410.861328125 647.614257812 342.303710938 647.614257812 c 0
 194.436523438 647.614257812 130.716796875 523.471679688 130.716796875 360.81640625 c 0
 130.716796875 201.6796875 196.569335938 81.82421875 342.303710938 81.82421875 c 0
 410.58984375 81.82421875 475.879882812 109.865234375 522.896484375 159.387695312 c 1
 563.02734375 111.5625 l 1
 504.72265625 52.5830078125 425.23828125 19.3916015625 342.303710938 19.3916015625 c 0
 153.130859375 19.3916015625 52.6767578125 160.985351562 52.6767578125 360.81640625 c 0
 52.6767578125 564.08203125 151.234375 710.045898438 342.303710938 710.045898438 c 0
 425.501953125 710.045898438 505.14453125 676.309570312 563.02734375 616.548828125 c 1
 522.896484375 568.723632812 l 1
-0.5439453125 19.935546875 m 1
 -0.5439453125 18.84765625 l 1
 590.72265625 18.84765625 l 1
 590.72265625 19.935546875 l 1
 -0.5439453125 19.935546875 l 1
-0.5439453125 800.336914062 m 1
 -0.5439453125 799.249023438 l 1
 590.72265625 799.249023438 l 1
 590.72265625 800.336914062 l 1
 -0.5439453125 800.336914062 l 1
-0.5439453125 -198.577148438 m 1
 -0.5439453125 -199.665039062 l 1
 590.72265625 -199.665039062 l 1
 590.72265625 -198.577148438 l 1
 -0.5439453125 -198.577148438 l 1
-0.5439453125 -199.665039062 m 1
 0.5439453125 -199.665039062 l 1
 0.5439453125 800.336914062 l 1
 -0.5439453125 800.336914062 l 1
 -0.5439453125 -199.665039062 l 1
589.634765625 -199.665039062 m 1
 590.72265625 -199.665039062 l 1
 590.72265625 800.336914062 l 1
 589.634765625 800.336914062 l 1
 589.634765625 -199.665039062 l 1
EndSplineSet
EndChar

StartChar: D
Encoding: 68 68 3
Width: 605
Flags: HW
LayerCount: 2
Fore
SplineSet
78.0400390625 639.809570312 m 1
 78.0400390625 702.241210938 l 1
 272.162109375 702.241210938 l 2
 455.420898438 702.241210938 552.1328125 564.454101562 552.1328125 370.569335938 c 0
 552.1328125 168.052734375 460.272460938 19.3916015625 272.162109375 19.3916015625 c 2
 78.0400390625 19.3916015625 l 1
 78.0400390625 81.82421875 l 1
 272.162109375 81.82421875 l 2
 417.557617188 81.82421875 474.092773438 208.518554688 474.092773438 370.569335938 c 0
 474.092773438 523.78515625 412.053710938 639.809570312 272.162109375 639.809570312 c 2
 78.0400390625 639.809570312 l 1
78.0400390625 702.241210938 m 1
 156.080078125 702.241210938 l 1
 156.080078125 19.3916015625 l 1
 78.0400390625 19.3916015625 l 1
 78.0400390625 702.241210938 l 1
-0.5439453125 19.935546875 m 1
 -0.5439453125 18.84765625 l 1
 605.352539062 18.84765625 l 1
 605.352539062 19.935546875 l 1
 -0.5439453125 19.935546875 l 1
-0.5439453125 800.336914062 m 1
 -0.5439453125 799.249023438 l 1
 605.352539062 799.249023438 l 1
 605.352539062 800.336914062 l 1
 -0.5439453125 800.336914062 l 1
-0.5439453125 -198.577148438 m 1
 -0.5439453125 -199.665039062 l 1
 605.352539062 -199.665039062 l 1
 605.352539062 -198.577148438 l 1
 -0.5439453125 -198.577148438 l 1
-0.5439453125 -199.665039062 m 1
 0.5439453125 -199.665039062 l 1
 0.5439453125 800.336914062 l 1
 -0.5439453125 800.336914062 l 1
 -0.5439453125 -199.665039062 l 1
604.264648438 -199.665039062 m 1
 605.352539062 -199.665039062 l 1
 605.352539062 800.336914062 l 1
 604.264648438 800.336914062 l 1
 604.264648438 -199.665039062 l 1
EndSplineSet
EndChar

StartChar: E
Encoding: 69 69 4
Width: 605
Flags: HW
LayerCount: 2
Fore
SplineSet
78.0400390625 702.241210938 m 1
 156.080078125 702.241210938 l 1
 156.080078125 19.3916015625 l 1
 78.0400390625 19.3916015625 l 1
 78.0400390625 702.241210938 l 1
117.060546875 639.809570312 m 1
 117.060546875 702.241210938 l 1
 544.325195312 702.241210938 l 1
 544.325195312 639.809570312 l 1
 117.060546875 639.809570312 l 1
117.060546875 329.600585938 m 1
 117.060546875 392.033203125 l 1
 483.83984375 392.033203125 l 1
 483.83984375 329.600585938 l 1
 117.060546875 329.600585938 l 1
117.060546875 19.3916015625 m 1
 117.060546875 81.82421875 l 1
 574.567382812 81.82421875 l 1
 574.567382812 19.3916015625 l 1
 117.060546875 19.3916015625 l 1
-0.5439453125 19.935546875 m 1
 -0.5439453125 18.84765625 l 1
 605.352539062 18.84765625 l 1
 605.352539062 19.935546875 l 1
 -0.5439453125 19.935546875 l 1
-0.5439453125 800.336914062 m 1
 -0.5439453125 799.249023438 l 1
 605.352539062 799.249023438 l 1
 605.352539062 800.336914062 l 1
 -0.5439453125 800.336914062 l 1
-0.5439453125 -198.577148438 m 1
 -0.5439453125 -199.665039062 l 1
 605.352539062 -199.665039062 l 1
 605.352539062 -198.577148438 l 1
 -0.5439453125 -198.577148438 l 1
-0.5439453125 -199.665039062 m 1
 0.5439453125 -199.665039062 l 1
 0.5439453125 800.336914062 l 1
 -0.5439453125 800.336914062 l 1
 -0.5439453125 -199.665039062 l 1
604.264648438 -199.665039062 m 1
 605.352539062 -199.665039062 l 1
 605.352539062 800.336914062 l 1
 604.264648438 800.336914062 l 1
 604.264648438 -199.665039062 l 1
EndSplineSet
EndChar

StartChar: F
Encoding: 70 70 5
Width: 532
Flags: HW
LayerCount: 2
Fore
SplineSet
78.0400390625 702.241210938 m 1
 156.080078125 702.241210938 l 1
 156.080078125 19.3916015625 l 1
 78.0400390625 19.3916015625 l 1
 78.0400390625 702.241210938 l 1
117.060546875 639.809570312 m 1
 117.060546875 702.241210938 l 1
 478.479492188 702.241210938 l 1
 478.479492188 639.809570312 l 1
 117.060546875 639.809570312 l 1
117.060546875 329.600585938 m 1
 117.060546875 392.033203125 l 1
 425.311523438 392.033203125 l 1
 425.311523438 329.600585938 l 1
 117.060546875 329.600585938 l 1
-0.5439453125 19.935546875 m 1
 -0.5439453125 18.84765625 l 1
 532.189453125 18.84765625 l 1
 532.189453125 19.935546875 l 1
 -0.5439453125 19.935546875 l 1
-0.5439453125 800.336914062 m 1
 -0.5439453125 799.249023438 l 1
 532.189453125 799.249023438 l 1
 532.189453125 800.336914062 l 1
 -0.5439453125 800.336914062 l 1
-0.5439453125 -198.577148438 m 1
 -0.5439453125 -199.665039062 l 1
 532.189453125 -199.665039062 l 1
 532.189453125 -198.577148438 l 1
 -0.5439453125 -198.577148438 l 1
-0.5439453125 -199.665039062 m 1
 0.5439453125 -199.665039062 l 1
 0.5439453125 800.336914062 l 1
 -0.5439453125 800.336914062 l 1
 -0.5439453125 -199.665039062 l 1
531.1015625 -199.665039062 m 1
 532.189453125 -199.665039062 l 1
 532.189453125 800.336914062 l 1
 531.1015625 800.336914062 l 1
 531.1015625 -199.665039062 l 1
EndSplineSet
EndChar

StartChar: G
Encoding: 71 71 6
Width: 635
Flags: HW
LayerCount: 2
Fore
SplineSet
541.267578125 570.049804688 m 1
 489.529296875 619.815429688 420.530273438 647.614257812 348.743164062 647.614257812 c 0
 198.7578125 647.614257812 130.716796875 524.48828125 130.716796875 360.81640625 c 0
 130.716796875 200.646484375 200.826171875 81.82421875 348.743164062 81.82421875 c 0
 427.06640625 81.82421875 505.129882812 90.8251953125 581.3984375 108.649414062 c 1
 581.3984375 46.2177734375 l 1
 505.129882812 28.392578125 427.06640625 19.3916015625 348.743164062 19.3916015625 c 0
 157.165039062 19.3916015625 52.6767578125 159.862304688 52.6767578125 360.81640625 c 0
 52.6767578125 565.184570312 155.3125 710.045898438 348.743164062 710.045898438 c 0
 435.198242188 710.045898438 518.400390625 677.083984375 581.3984375 617.875 c 1
 541.267578125 570.049804688 l 1
503.358398438 46.2177734375 m 1
 503.358398438 360.81640625 l 1
 581.3984375 360.81640625 l 1
 581.3984375 46.2177734375 l 1
 503.358398438 46.2177734375 l 1
581.3984375 392.033203125 m 1
 581.3984375 329.600585938 l 1
 317.037109375 329.600585938 l 1
 317.037109375 392.033203125 l 1
 581.3984375 392.033203125 l 1
-0.5439453125 19.935546875 m 1
 -0.5439453125 18.84765625 l 1
 634.618164062 18.84765625 l 1
 634.618164062 19.935546875 l 1
 -0.5439453125 19.935546875 l 1
-0.5439453125 800.336914062 m 1
 -0.5439453125 799.249023438 l 1
 634.618164062 799.249023438 l 1
 634.618164062 800.336914062 l 1
 -0.5439453125 800.336914062 l 1
-0.5439453125 -198.577148438 m 1
 -0.5439453125 -199.665039062 l 1
 634.618164062 -199.665039062 l 1
 634.618164062 -198.577148438 l 1
 -0.5439453125 -198.577148438 l 1
-0.5439453125 -199.665039062 m 1
 0.5439453125 -199.665039062 l 1
 0.5439453125 800.336914062 l 1
 -0.5439453125 800.336914062 l 1
 -0.5439453125 -199.665039062 l 1
633.530273438 -199.665039062 m 1
 634.618164062 -199.665039062 l 1
 634.618164062 800.336914062 l 1
 633.530273438 800.336914062 l 1
 633.530273438 -199.665039062 l 1
EndSplineSet
EndChar

StartChar: H
Encoding: 72 72 7
Width: 596
Flags: HW
LayerCount: 2
Fore
SplineSet
78.0400390625 702.241210938 m 1
 156.080078125 702.241210938 l 1
 156.080078125 19.3916015625 l 1
 78.0400390625 19.3916015625 l 1
 78.0400390625 702.241210938 l 1
438.974609375 19.3916015625 m 1
 438.974609375 702.241210938 l 1
 517.014648438 702.241210938 l 1
 517.014648438 19.3916015625 l 1
 438.974609375 19.3916015625 l 1
117.060546875 363.745117188 m 1
 117.060546875 426.177734375 l 1
 477.995117188 426.177734375 l 1
 477.995117188 363.745117188 l 1
 117.060546875 363.745117188 l 1
-0.5439453125 19.935546875 m 1
 -0.5439453125 18.84765625 l 1
 595.599609375 18.84765625 l 1
 595.599609375 19.935546875 l 1
 -0.5439453125 19.935546875 l 1
-0.5439453125 800.336914062 m 1
 -0.5439453125 799.249023438 l 1
 595.599609375 799.249023438 l 1
 595.599609375 800.336914062 l 1
 -0.5439453125 800.336914062 l 1
-0.5439453125 -198.577148438 m 1
 -0.5439453125 -199.665039062 l 1
 595.599609375 -199.665039062 l 1
 595.599609375 -198.577148438 l 1
 -0.5439453125 -198.577148438 l 1
-0.5439453125 -199.665039062 m 1
 0.5439453125 -199.665039062 l 1
 0.5439453125 800.336914062 l 1
 -0.5439453125 800.336914062 l 1
 -0.5439453125 -199.665039062 l 1
594.51171875 -199.665039062 m 1
 595.599609375 -199.665039062 l 1
 595.599609375 800.336914062 l 1
 594.51171875 800.336914062 l 1
 594.51171875 -199.665039062 l 1
EndSplineSet
EndChar

StartChar: I
Encoding: 73 73 8
Width: 225
Flags: HW
LayerCount: 2
Fore
SplineSet
73.162109375 702.241210938 m 1
 151.203125 702.241210938 l 1
 151.203125 19.3916015625 l 1
 73.162109375 19.3916015625 l 1
 73.162109375 702.241210938 l 1
-0.5439453125 19.935546875 m 1
 -0.5439453125 18.84765625 l 1
 224.908203125 18.84765625 l 1
 224.908203125 19.935546875 l 1
 -0.5439453125 19.935546875 l 1
-0.5439453125 800.336914062 m 1
 -0.5439453125 799.249023438 l 1
 224.908203125 799.249023438 l 1
 224.908203125 800.336914062 l 1
 -0.5439453125 800.336914062 l 1
-0.5439453125 -198.577148438 m 1
 -0.5439453125 -199.665039062 l 1
 224.908203125 -199.665039062 l 1
 224.908203125 -198.577148438 l 1
 -0.5439453125 -198.577148438 l 1
-0.5439453125 -199.665039062 m 1
 0.5439453125 -199.665039062 l 1
 0.5439453125 800.336914062 l 1
 -0.5439453125 800.336914062 l 1
 -0.5439453125 -199.665039062 l 1
223.8203125 -199.665039062 m 1
 224.908203125 -199.665039062 l 1
 224.908203125 800.336914062 l 1
 223.8203125 800.336914062 l 1
 223.8203125 -199.665039062 l 1
EndSplineSet
EndChar

StartChar: J
Encoding: 74 74 9
Width: 469
Flags: HW
LayerCount: 2
Fore
SplineSet
312.159179688 702.241210938 m 1
 390.200195312 702.241210938 l 1
 390.200195312 224.249023438 l 2
 390.200195312 97.00390625 318.060546875 11.587890625 194.31640625 11.587890625 c 0
 109.913085938 11.587890625 53.0263671875 49.1064453125 19.79296875 126.69140625 c 1
 73.8603515625 157.908203125 l 1
 94.572265625 101.890625 134.592773438 74.01953125 194.31640625 74.01953125 c 0
 274.1171875 74.01953125 312.159179688 137.9296875 312.159179688 224.249023438 c 2
 312.159179688 702.241210938 l 1
-0.5439453125 19.935546875 m 1
 -0.5439453125 18.84765625 l 1
 468.784179688 18.84765625 l 1
 468.784179688 19.935546875 l 1
 -0.5439453125 19.935546875 l 1
-0.5439453125 800.336914062 m 1
 -0.5439453125 799.249023438 l 1
 468.784179688 799.249023438 l 1
 468.784179688 800.336914062 l 1
 -0.5439453125 800.336914062 l 1
-0.5439453125 -198.577148438 m 1
 -0.5439453125 -199.665039062 l 1
 468.784179688 -199.665039062 l 1
 468.784179688 -198.577148438 l 1
 -0.5439453125 -198.577148438 l 1
-0.5439453125 -199.665039062 m 1
 0.5439453125 -199.665039062 l 1
 0.5439453125 800.336914062 l 1
 -0.5439453125 800.336914062 l 1
 -0.5439453125 -199.665039062 l 1
467.696289062 -199.665039062 m 1
 468.784179688 -199.665039062 l 1
 468.784179688 800.336914062 l 1
 467.696289062 800.336914062 l 1
 467.696289062 -199.665039062 l 1
EndSplineSet
EndChar

StartChar: K
Encoding: 75 75 10
Width: 566
Flags: HW
LayerCount: 2
Fore
SplineSet
78.0400390625 702.241210938 m 1
 156.080078125 702.241210938 l 1
 156.080078125 19.3916015625 l 1
 78.0400390625 19.3916015625 l 1
 78.0400390625 702.241210938 l 1
441.905273438 702.241210938 m 1
 519.9453125 702.241210938 l 1
 195.100585938 360.81640625 l 1
 519.9453125 19.3916015625 l 1
 441.905273438 19.3916015625 l 1
 117.060546875 360.81640625 l 1
 441.905273438 702.241210938 l 1
-0.5439453125 19.935546875 m 1
 -0.5439453125 18.84765625 l 1
 566.333984375 18.84765625 l 1
 566.333984375 19.935546875 l 1
 -0.5439453125 19.935546875 l 1
-0.5439453125 800.336914062 m 1
 -0.5439453125 799.249023438 l 1
 566.333984375 799.249023438 l 1
 566.333984375 800.336914062 l 1
 -0.5439453125 800.336914062 l 1
-0.5439453125 -198.577148438 m 1
 -0.5439453125 -199.665039062 l 1
 566.333984375 -199.665039062 l 1
 566.333984375 -198.577148438 l 1
 -0.5439453125 -198.577148438 l 1
-0.5439453125 -199.665039062 m 1
 0.5439453125 -199.665039062 l 1
 0.5439453125 800.336914062 l 1
 -0.5439453125 800.336914062 l 1
 -0.5439453125 -199.665039062 l 1
565.24609375 -199.665039062 m 1
 566.333984375 -199.665039062 l 1
 566.333984375 800.336914062 l 1
 565.24609375 800.336914062 l 1
 565.24609375 -199.665039062 l 1
EndSplineSet
EndChar

StartChar: L
Encoding: 76 76 11
Width: 508
Flags: HW
LayerCount: 2
Fore
SplineSet
78.0400390625 702.241210938 m 1
 156.080078125 702.241210938 l 1
 156.080078125 19.3916015625 l 1
 78.0400390625 19.3916015625 l 1
 78.0400390625 702.241210938 l 1
117.060546875 19.3916015625 m 1
 117.060546875 81.82421875 l 1
 466.677734375 81.82421875 l 1
 466.677734375 19.3916015625 l 1
 117.060546875 19.3916015625 l 1
-0.5439453125 19.935546875 m 1
 -0.5439453125 18.84765625 l 1
 507.803710938 18.84765625 l 1
 507.803710938 19.935546875 l 1
 -0.5439453125 19.935546875 l 1
-0.5439453125 800.336914062 m 1
 -0.5439453125 799.249023438 l 1
 507.803710938 799.249023438 l 1
 507.803710938 800.336914062 l 1
 -0.5439453125 800.336914062 l 1
-0.5439453125 -198.577148438 m 1
 -0.5439453125 -199.665039062 l 1
 507.803710938 -199.665039062 l 1
 507.803710938 -198.577148438 l 1
 -0.5439453125 -198.577148438 l 1
-0.5439453125 -199.665039062 m 1
 0.5439453125 -199.665039062 l 1
 0.5439453125 800.336914062 l 1
 -0.5439453125 800.336914062 l 1
 -0.5439453125 -199.665039062 l 1
506.71484375 -199.665039062 m 1
 507.803710938 -199.665039062 l 1
 507.803710938 800.336914062 l 1
 506.71484375 800.336914062 l 1
 506.71484375 -199.665039062 l 1
EndSplineSet
EndChar

StartChar: M
Encoding: 77 77 12
Width: 732
Flags: HW
LayerCount: 2
Fore
SplineSet
78.0400390625 702.241210938 m 1
 156.080078125 702.241210938 l 1
 156.080078125 19.3916015625 l 1
 78.0400390625 19.3916015625 l 1
 78.0400390625 702.241210938 l 1
575.543945312 702.241210938 m 1
 653.583984375 702.241210938 l 1
 653.583984375 19.3916015625 l 1
 575.543945312 19.3916015625 l 1
 575.543945312 702.241210938 l 1
78.0400390625 702.241210938 m 1
 156.080078125 702.241210938 l 1
 404.83203125 190.104492188 l 1
 326.791992188 190.104492188 l 1
 78.0400390625 702.241210938 l 1
575.543945312 702.241210938 m 1
 653.583984375 702.241210938 l 1
 404.83203125 190.104492188 l 1
 326.791992188 190.104492188 l 1
 575.543945312 702.241210938 l 1
-0.5439453125 19.935546875 m 1
 -0.5439453125 18.84765625 l 1
 732.169921875 18.84765625 l 1
 732.169921875 19.935546875 l 1
 -0.5439453125 19.935546875 l 1
-0.5439453125 800.336914062 m 1
 -0.5439453125 799.249023438 l 1
 732.169921875 799.249023438 l 1
 732.169921875 800.336914062 l 1
 -0.5439453125 800.336914062 l 1
-0.5439453125 -198.577148438 m 1
 -0.5439453125 -199.665039062 l 1
 732.169921875 -199.665039062 l 1
 732.169921875 -198.577148438 l 1
 -0.5439453125 -198.577148438 l 1
-0.5439453125 -199.665039062 m 1
 0.5439453125 -199.665039062 l 1
 0.5439453125 800.336914062 l 1
 -0.5439453125 800.336914062 l 1
 -0.5439453125 -199.665039062 l 1
731.08203125 -199.665039062 m 1
 732.169921875 -199.665039062 l 1
 732.169921875 800.336914062 l 1
 731.08203125 800.336914062 l 1
 731.08203125 -199.665039062 l 1
EndSplineSet
EndChar

StartChar: N
Encoding: 78 78 13
Width: 625
Flags: HW
LayerCount: 2
Fore
SplineSet
78.0400390625 702.241210938 m 1
 156.080078125 702.241210938 l 1
 156.080078125 19.3916015625 l 1
 78.0400390625 19.3916015625 l 1
 78.0400390625 702.241210938 l 1
468.23828125 702.241210938 m 1
 546.279296875 702.241210938 l 1
 546.279296875 19.3916015625 l 1
 468.23828125 19.3916015625 l 1
 468.23828125 702.241210938 l 1
78.0400390625 702.241210938 m 1
 171.688476562 702.241210938 l 1
 546.279296875 19.3916015625 l 1
 452.630859375 19.3916015625 l 1
 78.0400390625 702.241210938 l 1
-0.5439453125 19.935546875 m 1
 -0.5439453125 18.84765625 l 1
 624.862304688 18.84765625 l 1
 624.862304688 19.935546875 l 1
 -0.5439453125 19.935546875 l 1
-0.5439453125 800.336914062 m 1
 -0.5439453125 799.249023438 l 1
 624.862304688 799.249023438 l 1
 624.862304688 800.336914062 l 1
 -0.5439453125 800.336914062 l 1
-0.5439453125 -198.577148438 m 1
 -0.5439453125 -199.665039062 l 1
 624.862304688 -199.665039062 l 1
 624.862304688 -198.577148438 l 1
 -0.5439453125 -198.577148438 l 1
-0.5439453125 -199.665039062 m 1
 0.5439453125 -199.665039062 l 1
 0.5439453125 800.336914062 l 1
 -0.5439453125 800.336914062 l 1
 -0.5439453125 -199.665039062 l 1
623.774414062 -199.665039062 m 1
 624.862304688 -199.665039062 l 1
 624.862304688 800.336914062 l 1
 623.774414062 800.336914062 l 1
 623.774414062 -199.665039062 l 1
EndSplineSet
EndChar

StartChar: O
Encoding: 79 79 14
Width: 644
Flags: HW
LayerCount: 2
Fore
SplineSet
321.915039062 710.045898438 m 0
 505.813476562 710.045898438 591.154296875 560.716796875 591.154296875 360.81640625 c 0
 591.154296875 160.916992188 505.813476562 11.587890625 321.915039062 11.587890625 c 0
 138.016601562 11.587890625 52.6767578125 160.916992188 52.6767578125 360.81640625 c 0
 52.6767578125 560.716796875 138.016601562 710.045898438 321.915039062 710.045898438 c 0
321.915039062 647.614257812 m 0
 463.580078125 647.614257812 513.11328125 520.364257812 513.11328125 360.81640625 c 0
 513.11328125 201.26953125 463.580078125 74.01953125 321.915039062 74.01953125 c 0
 180.25 74.01953125 130.716796875 201.26953125 130.716796875 360.81640625 c 0
 130.716796875 520.364257812 180.25 647.614257812 321.915039062 647.614257812 c 0
-0.5439453125 19.935546875 m 1
 -0.5439453125 18.84765625 l 1
 644.374023438 18.84765625 l 1
 644.374023438 19.935546875 l 1
 -0.5439453125 19.935546875 l 1
-0.5439453125 800.336914062 m 1
 -0.5439453125 799.249023438 l 1
 644.374023438 799.249023438 l 1
 644.374023438 800.336914062 l 1
 -0.5439453125 800.336914062 l 1
-0.5439453125 -198.577148438 m 1
 -0.5439453125 -199.665039062 l 1
 644.374023438 -199.665039062 l 1
 644.374023438 -198.577148438 l 1
 -0.5439453125 -198.577148438 l 1
-0.5439453125 -199.665039062 m 1
 0.5439453125 -199.665039062 l 1
 0.5439453125 800.336914062 l 1
 -0.5439453125 800.336914062 l 1
 -0.5439453125 -199.665039062 l 1
643.286132812 -199.665039062 m 1
 644.374023438 -199.665039062 l 1
 644.374023438 800.336914062 l 1
 643.286132812 800.336914062 l 1
 643.286132812 -199.665039062 l 1
EndSplineSet
EndChar

StartChar: P
Encoding: 80 80 15
Width: 586
Flags: HW
LayerCount: 2
Fore
SplineSet
78.0400390625 702.241210938 m 1
 156.080078125 702.241210938 l 1
 156.080078125 19.3916015625 l 1
 78.0400390625 19.3916015625 l 1
 78.0400390625 702.241210938 l 1
117.060546875 702.241210938 m 1
 321.916992188 702.241210938 l 2
 450.052734375 702.241210938 532.623046875 624.294921875 532.623046875 497.384765625 c 0
 532.623046875 370.474609375 450.052734375 292.52734375 321.916992188 292.52734375 c 2
 117.060546875 292.52734375 l 1
 117.060546875 354.959960938 l 1
 321.916992188 354.959960938 l 2
 405.374023438 354.959960938 454.583007812 411.887695312 454.583007812 497.384765625 c 0
 454.583007812 582.880859375 405.374023438 639.809570312 321.916992188 639.809570312 c 2
 117.060546875 639.809570312 l 1
 117.060546875 702.241210938 l 1
-0.5439453125 19.935546875 m 1
 -0.5439453125 18.84765625 l 1
 585.84375 18.84765625 l 1
 585.84375 19.935546875 l 1
 -0.5439453125 19.935546875 l 1
-0.5439453125 800.336914062 m 1
 -0.5439453125 799.249023438 l 1
 585.84375 799.249023438 l 1
 585.84375 800.336914062 l 1
 -0.5439453125 800.336914062 l 1
-0.5439453125 -198.577148438 m 1
 -0.5439453125 -199.665039062 l 1
 585.84375 -199.665039062 l 1
 585.84375 -198.577148438 l 1
 -0.5439453125 -198.577148438 l 1
-0.5439453125 -199.665039062 m 1
 0.5439453125 -199.665039062 l 1
 0.5439453125 800.336914062 l 1
 -0.5439453125 800.336914062 l 1
 -0.5439453125 -199.665039062 l 1
584.755859375 -199.665039062 m 1
 585.84375 -199.665039062 l 1
 585.84375 800.336914062 l 1
 584.755859375 800.336914062 l 1
 584.755859375 -199.665039062 l 1
EndSplineSet
EndChar

StartChar: Q
Encoding: 81 81 16
Width: 644
Flags: HW
LayerCount: 2
Fore
SplineSet
321.915039062 710.045898438 m 0
 505.813476562 710.045898438 591.154296875 560.716796875 591.154296875 360.81640625 c 0
 591.154296875 160.916992188 505.813476562 11.587890625 321.915039062 11.587890625 c 0
 138.016601562 11.587890625 52.6767578125 160.916992188 52.6767578125 360.81640625 c 0
 52.6767578125 560.716796875 138.016601562 710.045898438 321.915039062 710.045898438 c 0
321.915039062 647.614257812 m 0
 463.580078125 647.614257812 513.11328125 520.364257812 513.11328125 360.81640625 c 0
 513.11328125 201.26953125 463.580078125 74.01953125 321.915039062 74.01953125 c 0
 180.25 74.01953125 130.716796875 201.26953125 130.716796875 360.81640625 c 0
 130.716796875 520.364257812 180.25 647.614257812 321.915039062 647.614257812 c 0
360.935546875 19.3916015625 m 1
 360.935546875 -45.6982421875 401.586914062 -105.471679688 462.389648438 -105.471679688 c 2
 552.133789062 -105.471679688 l 1
 552.133789062 -167.904296875 l 1
 462.389648438 -167.904296875 l 2
 361.807617188 -167.904296875 282.895507812 -82.66015625 282.895507812 19.3916015625 c 1
 360.935546875 19.3916015625 l 1
-0.5439453125 19.935546875 m 1
 -0.5439453125 18.84765625 l 1
 644.374023438 18.84765625 l 1
 644.374023438 19.935546875 l 1
 -0.5439453125 19.935546875 l 1
-0.5439453125 800.336914062 m 1
 -0.5439453125 799.249023438 l 1
 644.374023438 799.249023438 l 1
 644.374023438 800.336914062 l 1
 -0.5439453125 800.336914062 l 1
-0.5439453125 -198.577148438 m 1
 -0.5439453125 -199.665039062 l 1
 644.374023438 -199.665039062 l 1
 644.374023438 -198.577148438 l 1
 -0.5439453125 -198.577148438 l 1
-0.5439453125 -199.665039062 m 1
 0.5439453125 -199.665039062 l 1
 0.5439453125 800.336914062 l 1
 -0.5439453125 800.336914062 l 1
 -0.5439453125 -199.665039062 l 1
643.286132812 -199.665039062 m 1
 644.374023438 -199.665039062 l 1
 644.374023438 800.336914062 l 1
 643.286132812 800.336914062 l 1
 643.286132812 -199.665039062 l 1
EndSplineSet
EndChar

StartChar: R
Encoding: 82 82 17
Width: 586
Flags: HW
LayerCount: 2
Fore
SplineSet
78.0400390625 702.241210938 m 1
 156.080078125 702.241210938 l 1
 156.080078125 19.3916015625 l 1
 78.0400390625 19.3916015625 l 1
 78.0400390625 702.241210938 l 1
117.060546875 702.241210938 m 1
 321.916992188 702.241210938 l 2
 450.052734375 702.241210938 532.623046875 624.294921875 532.623046875 497.384765625 c 0
 532.623046875 370.474609375 450.052734375 292.52734375 321.916992188 292.52734375 c 2
 117.060546875 292.52734375 l 1
 117.060546875 354.959960938 l 1
 321.916992188 354.959960938 l 2
 405.374023438 354.959960938 454.583007812 411.887695312 454.583007812 497.384765625 c 0
 454.583007812 582.880859375 405.374023438 639.809570312 321.916992188 639.809570312 c 2
 117.060546875 639.809570312 l 1
 117.060546875 702.241210938 l 1
360.936523438 323.743164062 m 1
 532.623046875 19.3916015625 l 1
 454.583007812 19.3916015625 l 1
 282.896484375 323.743164062 l 1
 360.936523438 323.743164062 l 1
-0.5439453125 19.935546875 m 1
 -0.5439453125 18.84765625 l 1
 585.84375 18.84765625 l 1
 585.84375 19.935546875 l 1
 -0.5439453125 19.935546875 l 1
-0.5439453125 800.336914062 m 1
 -0.5439453125 799.249023438 l 1
 585.84375 799.249023438 l 1
 585.84375 800.336914062 l 1
 -0.5439453125 800.336914062 l 1
-0.5439453125 -198.577148438 m 1
 -0.5439453125 -199.665039062 l 1
 585.84375 -199.665039062 l 1
 585.84375 -198.577148438 l 1
 -0.5439453125 -198.577148438 l 1
-0.5439453125 -199.665039062 m 1
 0.5439453125 -199.665039062 l 1
 0.5439453125 800.336914062 l 1
 -0.5439453125 800.336914062 l 1
 -0.5439453125 -199.665039062 l 1
584.755859375 -199.665039062 m 1
 585.84375 -199.665039062 l 1
 585.84375 800.336914062 l 1
 584.755859375 800.336914062 l 1
 584.755859375 -199.665039062 l 1
EndSplineSet
EndChar

StartChar: S
Encoding: 83 83 18
Width: 566
Flags: HW
LayerCount: 2
Fore
SplineSet
469.077148438 544.810546875 m 1
 427.064453125 615.623046875 370.887695312 647.614257812 288.549804688 647.614257812 c 0
 200.435546875 647.614257812 135.203125 608.765625 135.203125 527.299804688 c 0
 135.203125 456.2734375 188.34375 422.581054688 261.711914062 406.985351562 c 2
 317.05859375 395.220703125 l 2
 432.091796875 370.76953125 513.11328125 314.793945312 513.11328125 202.786132812 c 0
 513.11328125 75.326171875 413.78515625 11.587890625 277.240234375 11.587890625 c 0
 183.1640625 11.587890625 118.2109375 40.9462890625 56.052734375 111.5625 c 1
 96.18359375 159.387695312 l 1
 145.71875 99.322265625 199.383789062 74.01953125 277.240234375 74.01953125 c 0
 368.74609375 74.01953125 435.073242188 117.201171875 435.073242188 202.786132812 c 0
 435.073242188 278.55078125 381.568359375 317.681640625 304.078125 334.153320312 c 2
 248.731445312 345.91796875 l 2
 137.809570312 369.495117188 57.1630859375 420.002929688 57.1630859375 527.299804688 c 0
 57.1630859375 650.641601562 155.396484375 710.045898438 288.549804688 710.045898438 c 0
 386.88671875 710.045898438 454.266601562 674.193359375 509.208007812 592.635742188 c 1
 469.077148438 544.810546875 l 1
-0.5439453125 19.935546875 m 1
 -0.5439453125 18.84765625 l 1
 566.333984375 18.84765625 l 1
 566.333984375 19.935546875 l 1
 -0.5439453125 19.935546875 l 1
-0.5439453125 800.336914062 m 1
 -0.5439453125 799.249023438 l 1
 566.333984375 799.249023438 l 1
 566.333984375 800.336914062 l 1
 -0.5439453125 800.336914062 l 1
-0.5439453125 -198.577148438 m 1
 -0.5439453125 -199.665039062 l 1
 566.333984375 -199.665039062 l 1
 566.333984375 -198.577148438 l 1
 -0.5439453125 -198.577148438 l 1
-0.5439453125 -199.665039062 m 1
 0.5439453125 -199.665039062 l 1
 0.5439453125 800.336914062 l 1
 -0.5439453125 800.336914062 l 1
 -0.5439453125 -199.665039062 l 1
565.24609375 -199.665039062 m 1
 566.333984375 -199.665039062 l 1
 566.333984375 800.336914062 l 1
 565.24609375 800.336914062 l 1
 565.24609375 -199.665039062 l 1
EndSplineSet
EndChar

StartChar: T
Encoding: 84 84 19
Width: 596
Flags: HW
LayerCount: 2
Fore
SplineSet
59.5087890625 639.809570312 m 1
 59.5087890625 702.241210938 l 1
 535.545898438 702.241210938 l 1
 535.545898438 639.809570312 l 1
 59.5087890625 639.809570312 l 1
258.5078125 671.025390625 m 1
 336.547851562 671.025390625 l 1
 336.547851562 19.3916015625 l 1
 258.5078125 19.3916015625 l 1
 258.5078125 671.025390625 l 1
-0.5439453125 19.935546875 m 1
 -0.5439453125 18.84765625 l 1
 595.599609375 18.84765625 l 1
 595.599609375 19.935546875 l 1
 -0.5439453125 19.935546875 l 1
-0.5439453125 800.336914062 m 1
 -0.5439453125 799.249023438 l 1
 595.599609375 799.249023438 l 1
 595.599609375 800.336914062 l 1
 -0.5439453125 800.336914062 l 1
-0.5439453125 -198.577148438 m 1
 -0.5439453125 -199.665039062 l 1
 595.599609375 -199.665039062 l 1
 595.599609375 -198.577148438 l 1
 -0.5439453125 -198.577148438 l 1
-0.5439453125 -199.665039062 m 1
 0.5439453125 -199.665039062 l 1
 0.5439453125 800.336914062 l 1
 -0.5439453125 800.336914062 l 1
 -0.5439453125 -199.665039062 l 1
594.51171875 -199.665039062 m 1
 595.599609375 -199.665039062 l 1
 595.599609375 800.336914062 l 1
 594.51171875 800.336914062 l 1
 594.51171875 -199.665039062 l 1
EndSplineSet
EndChar

StartChar: U
Encoding: 85 85 20
Width: 620
Flags: HW
LayerCount: 2
Fore
SplineSet
78.0400390625 702.241210938 m 1
 156.080078125 702.241210938 l 1
 156.080078125 251.073242188 l 2
 156.080078125 157.267578125 220.272460938 74.01953125 309.721679688 74.01953125 c 0
 399.169921875 74.01953125 463.362304688 157.267578125 463.362304688 251.073242188 c 2
 463.362304688 702.241210938 l 1
 541.40234375 702.241210938 l 1
 541.40234375 251.073242188 l 2
 541.40234375 120.204101562 439.119140625 11.587890625 309.721679688 11.587890625 c 0
 180.32421875 11.587890625 78.0400390625 120.204101562 78.0400390625 251.073242188 c 2
 78.0400390625 702.241210938 l 1
-0.5439453125 19.935546875 m 1
 -0.5439453125 18.84765625 l 1
 619.985351562 18.84765625 l 1
 619.985351562 19.935546875 l 1
 -0.5439453125 19.935546875 l 1
-0.5439453125 800.336914062 m 1
 -0.5439453125 799.249023438 l 1
 619.985351562 799.249023438 l 1
 619.985351562 800.336914062 l 1
 -0.5439453125 800.336914062 l 1
-0.5439453125 -198.577148438 m 1
 -0.5439453125 -199.665039062 l 1
 619.985351562 -199.665039062 l 1
 619.985351562 -198.577148438 l 1
 -0.5439453125 -198.577148438 l 1
-0.5439453125 -199.665039062 m 1
 0.5439453125 -199.665039062 l 1
 0.5439453125 800.336914062 l 1
 -0.5439453125 800.336914062 l 1
 -0.5439453125 -199.665039062 l 1
618.897460938 -199.665039062 m 1
 619.985351562 -199.665039062 l 1
 619.985351562 800.336914062 l 1
 618.897460938 800.336914062 l 1
 618.897460938 -199.665039062 l 1
EndSplineSet
EndChar

StartChar: V
Encoding: 86 86 21
Width: 639
Flags: HW
LayerCount: 2
Fore
SplineSet
39.0205078125 702.241210938 m 1
 117.060546875 702.241210938 l 1
 358.49609375 19.3916015625 l 1
 280.456054688 19.3916015625 l 1
 39.0205078125 702.241210938 l 1
521.892578125 702.241210938 m 1
 599.932617188 702.241210938 l 1
 358.49609375 19.3916015625 l 1
 280.456054688 19.3916015625 l 1
 521.892578125 702.241210938 l 1
-0.5439453125 19.935546875 m 1
 -0.5439453125 18.84765625 l 1
 639.497070312 18.84765625 l 1
 639.497070312 19.935546875 l 1
 -0.5439453125 19.935546875 l 1
-0.5439453125 800.336914062 m 1
 -0.5439453125 799.249023438 l 1
 639.497070312 799.249023438 l 1
 639.497070312 800.336914062 l 1
 -0.5439453125 800.336914062 l 1
-0.5439453125 -198.577148438 m 1
 -0.5439453125 -199.665039062 l 1
 639.497070312 -199.665039062 l 1
 639.497070312 -198.577148438 l 1
 -0.5439453125 -198.577148438 l 1
-0.5439453125 -199.665039062 m 1
 0.5439453125 -199.665039062 l 1
 0.5439453125 800.336914062 l 1
 -0.5439453125 800.336914062 l 1
 -0.5439453125 -199.665039062 l 1
638.409179688 -199.665039062 m 1
 639.497070312 -199.665039062 l 1
 639.497070312 800.336914062 l 1
 638.409179688 800.336914062 l 1
 638.409179688 -199.665039062 l 1
EndSplineSet
EndChar

StartChar: W
Encoding: 87 87 22
Width: 800
Flags: HW
LayerCount: 2
Fore
SplineSet
39.0205078125 702.241210938 m 1
 117.060546875 702.241210938 l 1
 270.213867188 19.3916015625 l 1
 207.78125 19.3916015625 l 1
 39.0205078125 702.241210938 l 1
368.73828125 702.241210938 m 1
 431.170898438 702.241210938 l 1
 270.213867188 19.3916015625 l 1
 207.78125 19.3916015625 l 1
 368.73828125 702.241210938 l 1
368.73828125 702.241210938 m 1
 431.170898438 702.241210938 l 1
 592.127929688 19.3916015625 l 1
 529.696289062 19.3916015625 l 1
 368.73828125 702.241210938 l 1
682.848632812 702.241210938 m 1
 760.889648438 702.241210938 l 1
 592.127929688 19.3916015625 l 1
 529.696289062 19.3916015625 l 1
 682.848632812 702.241210938 l 1
-0.5439453125 19.935546875 m 1
 -0.5439453125 18.84765625 l 1
 800.454101562 18.84765625 l 1
 800.454101562 19.935546875 l 1
 -0.5439453125 19.935546875 l 1
-0.5439453125 800.336914062 m 1
 -0.5439453125 799.249023438 l 1
 800.454101562 799.249023438 l 1
 800.454101562 800.336914062 l 1
 -0.5439453125 800.336914062 l 1
-0.5439453125 -198.577148438 m 1
 -0.5439453125 -199.665039062 l 1
 800.454101562 -199.665039062 l 1
 800.454101562 -198.577148438 l 1
 -0.5439453125 -198.577148438 l 1
-0.5439453125 -199.665039062 m 1
 0.5439453125 -199.665039062 l 1
 0.5439453125 800.336914062 l 1
 -0.5439453125 800.336914062 l 1
 -0.5439453125 -199.665039062 l 1
799.366210938 -199.665039062 m 1
 800.454101562 -199.665039062 l 1
 800.454101562 800.336914062 l 1
 799.366210938 800.336914062 l 1
 799.366210938 -199.665039062 l 1
EndSplineSet
EndChar

StartChar: X
Encoding: 88 88 23
Width: 644
Flags: HW
LayerCount: 2
Fore
SplineSet
39.0205078125 702.241210938 m 1
 117.060546875 702.241210938 l 1
 604.810546875 19.3916015625 l 1
 526.76953125 19.3916015625 l 1
 39.0205078125 702.241210938 l 1
526.76953125 702.241210938 m 1
 604.810546875 702.241210938 l 1
 117.060546875 19.3916015625 l 1
 39.0205078125 19.3916015625 l 1
 526.76953125 702.241210938 l 1
-0.5439453125 19.935546875 m 1
 -0.5439453125 18.84765625 l 1
 644.374023438 18.84765625 l 1
 644.374023438 19.935546875 l 1
 -0.5439453125 19.935546875 l 1
-0.5439453125 800.336914062 m 1
 -0.5439453125 799.249023438 l 1
 644.374023438 799.249023438 l 1
 644.374023438 800.336914062 l 1
 -0.5439453125 800.336914062 l 1
-0.5439453125 -198.577148438 m 1
 -0.5439453125 -199.665039062 l 1
 644.374023438 -199.665039062 l 1
 644.374023438 -198.577148438 l 1
 -0.5439453125 -198.577148438 l 1
-0.5439453125 -199.665039062 m 1
 0.5439453125 -199.665039062 l 1
 0.5439453125 800.336914062 l 1
 -0.5439453125 800.336914062 l 1
 -0.5439453125 -199.665039062 l 1
643.286132812 -199.665039062 m 1
 644.374023438 -199.665039062 l 1
 644.374023438 800.336914062 l 1
 643.286132812 800.336914062 l 1
 643.286132812 -199.665039062 l 1
EndSplineSet
EndChar

StartChar: Y
Encoding: 89 89 24
Width: 576
Flags: HW
LayerCount: 2
Fore
SplineSet
39.0205078125 702.241210938 m 1
 117.060546875 702.241210938 l 1
 326.791992188 326.671875 l 1
 248.751953125 326.671875 l 1
 39.0205078125 702.241210938 l 1
458.483398438 702.241210938 m 1
 536.524414062 702.241210938 l 1
 326.791992188 326.671875 l 1
 248.751953125 326.671875 l 1
 458.483398438 702.241210938 l 1
248.751953125 326.671875 m 1
 326.791992188 326.671875 l 1
 326.791992188 19.3916015625 l 1
 248.751953125 19.3916015625 l 1
 248.751953125 326.671875 l 1
-0.5439453125 19.935546875 m 1
 -0.5439453125 18.84765625 l 1
 576.086914062 18.84765625 l 1
 576.086914062 19.935546875 l 1
 -0.5439453125 19.935546875 l 1
-0.5439453125 800.336914062 m 1
 -0.5439453125 799.249023438 l 1
 576.086914062 799.249023438 l 1
 576.086914062 800.336914062 l 1
 -0.5439453125 800.336914062 l 1
-0.5439453125 -198.577148438 m 1
 -0.5439453125 -199.665039062 l 1
 576.086914062 -199.665039062 l 1
 576.086914062 -198.577148438 l 1
 -0.5439453125 -198.577148438 l 1
-0.5439453125 -199.665039062 m 1
 0.5439453125 -199.665039062 l 1
 0.5439453125 800.336914062 l 1
 -0.5439453125 800.336914062 l 1
 -0.5439453125 -199.665039062 l 1
574.999023438 -199.665039062 m 1
 576.086914062 -199.665039062 l 1
 576.086914062 800.336914062 l 1
 574.999023438 800.336914062 l 1
 574.999023438 -199.665039062 l 1
EndSplineSet
EndChar

StartChar: Z
Encoding: 90 90 25
Width: 586
Flags: HW
LayerCount: 2
Fore
SplineSet
78.0400390625 639.809570312 m 1
 78.0400390625 702.241210938 l 1
 507.259765625 702.241210938 l 1
 507.259765625 639.809570312 l 1
 78.0400390625 639.809570312 l 1
78.0400390625 19.3916015625 m 1
 78.0400390625 81.82421875 l 1
 507.259765625 81.82421875 l 1
 507.259765625 19.3916015625 l 1
 78.0400390625 19.3916015625 l 1
429.21875 639.809570312 m 1
 507.259765625 639.809570312 l 1
 156.080078125 81.82421875 l 1
 78.0400390625 81.82421875 l 1
 429.21875 639.809570312 l 1
-0.5439453125 19.935546875 m 1
 -0.5439453125 18.84765625 l 1
 585.84375 18.84765625 l 1
 585.84375 19.935546875 l 1
 -0.5439453125 19.935546875 l 1
-0.5439453125 800.336914062 m 1
 -0.5439453125 799.249023438 l 1
 585.84375 799.249023438 l 1
 585.84375 800.336914062 l 1
 -0.5439453125 800.336914062 l 1
-0.5439453125 -198.577148438 m 1
 -0.5439453125 -199.665039062 l 1
 585.84375 -199.665039062 l 1
 585.84375 -198.577148438 l 1
 -0.5439453125 -198.577148438 l 1
-0.5439453125 -199.665039062 m 1
 0.5439453125 -199.665039062 l 1
 0.5439453125 800.336914062 l 1
 -0.5439453125 800.336914062 l 1
 -0.5439453125 -199.665039062 l 1
584.755859375 -199.665039062 m 1
 585.84375 -199.665039062 l 1
 585.84375 800.336914062 l 1
 584.755859375 800.336914062 l 1
 584.755859375 -199.665039062 l 1
EndSplineSet
EndChar

StartChar: a
Encoding: 97 97 26
Width: 518
Flags: HW
LayerCount: 2
Fore
SplineSet
83.3359375 464.331054688 m 1
 132.805664062 514.198242188 181.434570312 534.455078125 251.677734375 534.455078125 c 0
 366.221679688 534.455078125 438.974609375 463.243164062 438.974609375 349.107421875 c 2
 438.974609375 19.3916015625 l 1
 376.54296875 19.3916015625 l 1
 360.934570312 118.502929688 l 1
 360.934570312 349.107421875 l 2
 360.934570312 421.928710938 321.663085938 472.0234375 251.677734375 472.0234375 c 0
 197.708984375 472.0234375 160.392578125 455.864257812 123.466796875 416.505859375 c 1
 83.3359375 464.331054688 l 1
399.955078125 314.384765625 m 1
 399.955078125 251.953125 l 1
 235.291015625 251.953125 l 2
 174.040039062 251.953125 130.716796875 221.0234375 130.716796875 162.986328125 c 0
 130.716796875 104.94921875 174.040039062 74.01953125 235.291015625 74.01953125 c 0
 286.857421875 74.01953125 334.60546875 101.198242188 360.934570312 145.537109375 c 1
 376.54296875 118.502929688 l 1
 358.701171875 55.2626953125 301 11.587890625 235.291015625 11.587890625 c 0
 129.010742188 11.587890625 52.6767578125 63.0927734375 52.6767578125 162.986328125 c 0
 52.6767578125 262.879882812 129.010742188 314.384765625 235.291015625 314.384765625 c 2
 399.955078125 314.384765625 l 1
-0.5439453125 19.935546875 m 1
 -0.5439453125 18.84765625 l 1
 517.559570312 18.84765625 l 1
 517.559570312 19.935546875 l 1
 -0.5439453125 19.935546875 l 1
-0.5439453125 800.336914062 m 1
 -0.5439453125 799.249023438 l 1
 517.559570312 799.249023438 l 1
 517.559570312 800.336914062 l 1
 -0.5439453125 800.336914062 l 1
-0.5439453125 -198.577148438 m 1
 -0.5439453125 -199.665039062 l 1
 517.559570312 -199.665039062 l 1
 517.559570312 -198.577148438 l 1
 -0.5439453125 -198.577148438 l 1
-0.5439453125 -199.665039062 m 1
 0.5439453125 -199.665039062 l 1
 0.5439453125 800.336914062 l 1
 -0.5439453125 800.336914062 l 1
 -0.5439453125 -199.665039062 l 1
516.471679688 -199.665039062 m 1
 517.559570312 -199.665039062 l 1
 517.559570312 800.336914062 l 1
 516.471679688 800.336914062 l 1
 516.471679688 -199.665039062 l 1
EndSplineSet
EndChar

StartChar: b
Encoding: 98 98 27
Width: 570
Flags: HW
LayerCount: 2
Fore
SplineSet
62.431640625 710.045898438 m 1
 140.471679688 710.045898438 l 1
 140.471679688 155.959960938 l 1
 124.864257812 19.3916015625 l 1
 62.431640625 19.3916015625 l 1
 62.431640625 710.045898438 l 1
113.71875 456.360351562 m 1
 156.74609375 505.962890625 219.180664062 534.455078125 284.845703125 534.455078125 c 0
 433.6171875 534.455078125 517.014648438 427.869140625 517.014648438 273.021484375 c 0
 517.014648438 118.173828125 433.6171875 11.587890625 284.845703125 11.587890625 c 0
 200.24609375 11.587890625 127.96484375 72.568359375 113.71875 155.959960938 c 1
 140.471679688 187.842773438 l 1
 156.494140625 121.086914062 216.193359375 74.01953125 284.845703125 74.01953125 c 0
 389.877929688 74.01953125 438.974609375 158.998046875 438.974609375 273.021484375 c 0
 438.974609375 387.044921875 389.877929688 472.0234375 284.845703125 472.0234375 c 0
 232.874023438 472.0234375 182.272460938 455.358398438 140.471679688 424.4765625 c 1
 113.71875 456.360351562 l 1
-0.5439453125 19.935546875 m 1
 -0.5439453125 18.84765625 l 1
 570.235351562 18.84765625 l 1
 570.235351562 19.935546875 l 1
 -0.5439453125 19.935546875 l 1
-0.5439453125 800.336914062 m 1
 -0.5439453125 799.249023438 l 1
 570.235351562 799.249023438 l 1
 570.235351562 800.336914062 l 1
 -0.5439453125 800.336914062 l 1
-0.5439453125 -198.577148438 m 1
 -0.5439453125 -199.665039062 l 1
 570.235351562 -199.665039062 l 1
 570.235351562 -198.577148438 l 1
 -0.5439453125 -198.577148438 l 1
-0.5439453125 -199.665039062 m 1
 0.5439453125 -199.665039062 l 1
 0.5439453125 800.336914062 l 1
 -0.5439453125 800.336914062 l 1
 -0.5439453125 -199.665039062 l 1
569.147460938 -199.665039062 m 1
 570.235351562 -199.665039062 l 1
 570.235351562 800.336914062 l 1
 569.147460938 800.336914062 l 1
 569.147460938 -199.665039062 l 1
EndSplineSet
EndChar

StartChar: c
Encoding: 99 99 28
Width: 493
Flags: HW
LayerCount: 2
Fore
SplineSet
460.016601562 464.331054688 m 1
 419.885742188 416.505859375 l 1
 375.80078125 456.216796875 334.634765625 472.0234375 275.30078125 472.0234375 c 0
 173.415039062 472.0234375 130.716796875 385.537109375 130.716796875 273.021484375 c 0
 130.716796875 160.505859375 173.415039062 74.01953125 275.30078125 74.01953125 c 0
 328.701171875 74.01953125 380.208984375 93.7978515625 419.885742188 129.538085938 c 1
 460.016601562 81.712890625 l 1
 409.091796875 36.5361328125 343.376953125 11.587890625 275.30078125 11.587890625 c 0
 130.131835938 11.587890625 52.6767578125 119.860351562 52.6767578125 273.021484375 c 0
 52.6767578125 426.182617188 130.131835938 534.455078125 275.30078125 534.455078125 c 0
 350.94140625 534.455078125 403.43359375 514.52734375 460.016601562 464.331054688 c 1
-0.5439453125 19.935546875 m 1
 -0.5439453125 18.84765625 l 1
 493.172851562 18.84765625 l 1
 493.172851562 19.935546875 l 1
 -0.5439453125 19.935546875 l 1
-0.5439453125 800.336914062 m 1
 -0.5439453125 799.249023438 l 1
 493.172851562 799.249023438 l 1
 493.172851562 800.336914062 l 1
 -0.5439453125 800.336914062 l 1
-0.5439453125 -198.577148438 m 1
 -0.5439453125 -199.665039062 l 1
 493.172851562 -199.665039062 l 1
 493.172851562 -198.577148438 l 1
 -0.5439453125 -198.577148438 l 1
-0.5439453125 -199.665039062 m 1
 0.5439453125 -199.665039062 l 1
 0.5439453125 800.336914062 l 1
 -0.5439453125 800.336914062 l 1
 -0.5439453125 -199.665039062 l 1
492.084960938 -199.665039062 m 1
 493.172851562 -199.665039062 l 1
 493.172851562 800.336914062 l 1
 492.084960938 800.336914062 l 1
 492.084960938 -199.665039062 l 1
EndSplineSet
EndChar

StartChar: e
Encoding: 101 101 29
Width: 532
Flags: HW
LayerCount: 2
Fore
SplineSet
400.930664062 241.805664062 m 1
 401.516601562 262.612304688 401.516601562 283.430664062 400.930664062 304.237304688 c 0
 398.259765625 399.10546875 362.661132812 472.0234375 276.458984375 472.0234375 c 0
 174.203125 472.0234375 130.716796875 385.716796875 130.716796875 273.021484375 c 0
 130.716796875 160.326171875 174.203125 74.01953125 276.458984375 74.01953125 c 0
 329.512695312 74.01953125 380.658203125 93.8173828125 419.884765625 129.538085938 c 1
 460.015625 81.712890625 l 1
 409.5390625 36.5546875 344.1875 11.587890625 276.458984375 11.587890625 c 0
 130.858398438 11.587890625 52.6767578125 119.659179688 52.6767578125 273.021484375 c 0
 52.6767578125 426.383789062 130.858398438 534.455078125 276.458984375 534.455078125 c 0
 404.680664062 534.455078125 471.837890625 439.473632812 478.970703125 304.237304688 c 0
 480.067382812 283.44140625 480.067382812 262.6015625 478.970703125 241.805664062 c 1
 400.930664062 241.805664062 l 1
91.6962890625 241.805664062 m 1
 91.6962890625 304.237304688 l 1
 478.970703125 304.237304688 l 1
 478.970703125 241.805664062 l 1
 91.6962890625 241.805664062 l 1
-0.5439453125 19.935546875 m 1
 -0.5439453125 18.84765625 l 1
 532.189453125 18.84765625 l 1
 532.189453125 19.935546875 l 1
 -0.5439453125 19.935546875 l 1
-0.5439453125 800.336914062 m 1
 -0.5439453125 799.249023438 l 1
 532.189453125 799.249023438 l 1
 532.189453125 800.336914062 l 1
 -0.5439453125 800.336914062 l 1
-0.5439453125 -198.577148438 m 1
 -0.5439453125 -199.665039062 l 1
 532.189453125 -199.665039062 l 1
 532.189453125 -198.577148438 l 1
 -0.5439453125 -198.577148438 l 1
-0.5439453125 -199.665039062 m 1
 0.5439453125 -199.665039062 l 1
 0.5439453125 800.336914062 l 1
 -0.5439453125 800.336914062 l 1
 -0.5439453125 -199.665039062 l 1
531.1015625 -199.665039062 m 1
 532.189453125 -199.665039062 l 1
 532.189453125 800.336914062 l 1
 531.1015625 800.336914062 l 1
 531.1015625 -199.665039062 l 1
EndSplineSet
EndChar

StartChar: f
Encoding: 102 102 30
Width: 410
Flags: HW
LayerCount: 2
Fore
SplineSet
149.44921875 19.3916015625 m 1
 149.44921875 599.818359375 l 2
 149.44921875 685.618164062 211.2109375 733.458007812 300.65625 733.458007812 c 0
 320.134765625 733.458007812 339.376953125 729.196289062 357.033203125 720.971679688 c 1
 357.033203125 671.025390625 l 1
 300.65625 671.025390625 l 2
 260.598632812 671.025390625 227.489257812 639.505859375 227.489257812 599.818359375 c 2
 227.489257812 19.3916015625 l 1
 149.44921875 19.3916015625 l 1
52.6767578125 526.651367188 m 1
 357.033203125 526.651367188 l 1
 357.033203125 464.219726562 l 1
 52.6767578125 464.219726562 l 1
 52.6767578125 526.651367188 l 1
-0.5439453125 19.935546875 m 1
 -0.5439453125 18.84765625 l 1
 410.25390625 18.84765625 l 1
 410.25390625 19.935546875 l 1
 -0.5439453125 19.935546875 l 1
-0.5439453125 800.336914062 m 1
 -0.5439453125 799.249023438 l 1
 410.25390625 799.249023438 l 1
 410.25390625 800.336914062 l 1
 -0.5439453125 800.336914062 l 1
-0.5439453125 -198.577148438 m 1
 -0.5439453125 -199.665039062 l 1
 410.25390625 -199.665039062 l 1
 410.25390625 -198.577148438 l 1
 -0.5439453125 -198.577148438 l 1
-0.5439453125 -199.665039062 m 1
 0.5439453125 -199.665039062 l 1
 0.5439453125 800.336914062 l 1
 -0.5439453125 800.336914062 l 1
 -0.5439453125 -199.665039062 l 1
409.166015625 -199.665039062 m 1
 410.25390625 -199.665039062 l 1
 410.25390625 800.336914062 l 1
 409.166015625 800.336914062 l 1
 409.166015625 -199.665039062 l 1
EndSplineSet
EndChar

StartChar: g
Encoding: 103 103 31
Width: 537
Flags: HW
LayerCount: 2
Fore
SplineSet
228.020507812 534.455078125 m 1
 338.904296875 534.455078125 414.5859375 473.64453125 414.5859375 366.666992188 c 0
 414.5859375 259.689453125 338.904296875 198.87890625 228.020507812 198.87890625 c 0
 117.13671875 198.87890625 41.455078125 259.689453125 41.455078125 366.666992188 c 0
 41.455078125 473.64453125 117.13671875 534.455078125 228.020507812 534.455078125 c 1
 228.020507812 472.0234375 l 1
 162.0546875 472.0234375 119.495117188 431.969726562 119.495117188 366.666992188 c 0
 119.495117188 301.365234375 162.0546875 261.310546875 228.020507812 261.310546875 c 0
 293.986328125 261.310546875 336.545898438 301.365234375 336.545898438 366.666992188 c 0
 336.545898438 431.969726562 293.986328125 472.0234375 228.020507812 472.0234375 c 1
 228.020507812 534.455078125 l 1
317.401367188 472.0234375 m 1
 286.185546875 526.091796875 l 1
 448.813476562 619.985351562 l 1
 480.030273438 565.916992188 l 1
 317.401367188 472.0234375 l 1
228.020507812 230.094726562 m 1
 228.020507812 198.87890625 l 1
 182.927734375 214.333984375 133.9453125 189.6796875 119.495117188 144.254882812 c 0
 109.221679688 111.95703125 149.25 89.6298828125 193.268554688 89.6298828125 c 1
 193.268554688 89.6298828125 l 1
 336.545898438 89.6298828125 l 2
 412.37890625 89.6298828125 484.806640625 48.6103515625 482.869140625 -19.630859375 c 0
 480.10546875 -116.979492188 338.678710938 -166.90625 228.020507812 -167.904296875 c 0
 141.040039062 -168.6875 51.0107421875 -137.397460938 41.455078125 -58.65234375 c 0
 32.7978515625 12.6943359375 100.872070312 69.068359375 169.35546875 47.263671875 c 1
 193.268554688 27.1982421875 l 1
 138.318359375 52.4130859375 80.9052734375 -2.732421875 103.887695312 -58.65234375 c 0
 122.047851562 -102.842773438 178.041015625 -105.471679688 228.020507812 -105.471679688 c 0
 307.55859375 -105.471679688 411.763671875 -84.7998046875 404.829101562 -19.630859375 c 0
 401.583984375 10.8603515625 369.40625 27.1982421875 336.545898438 27.1982421875 c 2
 193.268554688 27.1982421875 l 2
 109.5625 27.1982421875 31.21484375 73.25390625 41.455078125 144.254882812 c 0
 52.177734375 218.598632812 144.6875 230.094726562 228.020507812 230.094726562 c 1
-0.5439453125 19.935546875 m 1
 -0.5439453125 18.84765625 l 1
 537.068359375 18.84765625 l 1
 537.068359375 19.935546875 l 1
 -0.5439453125 19.935546875 l 1
-0.5439453125 800.336914062 m 1
 -0.5439453125 799.249023438 l 1
 537.068359375 799.249023438 l 1
 537.068359375 800.336914062 l 1
 -0.5439453125 800.336914062 l 1
-0.5439453125 -198.577148438 m 1
 -0.5439453125 -199.665039062 l 1
 537.068359375 -199.665039062 l 1
 537.068359375 -198.577148438 l 1
 -0.5439453125 -198.577148438 l 1
-0.5439453125 -199.665039062 m 1
 0.5439453125 -199.665039062 l 1
 0.5439453125 800.336914062 l 1
 -0.5439453125 800.336914062 l 1
 -0.5439453125 -199.665039062 l 1
535.98046875 -199.665039062 m 1
 537.068359375 -199.665039062 l 1
 537.068359375 800.336914062 l 1
 535.98046875 800.336914062 l 1
 535.98046875 -199.665039062 l 1
EndSplineSet
EndChar

StartChar: i
Encoding: 105 105 32
Width: 293
Flags: HW
LayerCount: 2
Fore
SplineSet
29.2666015625 464.219726562 m 1
 29.2666015625 526.651367188 l 1
 175.591796875 526.651367188 l 1
 175.591796875 464.219726562 l 1
 29.2666015625 464.219726562 l 1
136.571289062 526.651367188 m 1
 214.612304688 526.651367188 l 1
 214.612304688 19.3916015625 l 1
 136.571289062 19.3916015625 l 1
 136.571289062 526.651367188 l 1
-0.5439453125 19.935546875 m 1
 -0.5439453125 18.84765625 l 1
 293.192382812 18.84765625 l 1
 293.192382812 19.935546875 l 1
 -0.5439453125 19.935546875 l 1
-0.5439453125 800.336914062 m 1
 -0.5439453125 799.249023438 l 1
 293.192382812 799.249023438 l 1
 293.192382812 800.336914062 l 1
 -0.5439453125 800.336914062 l 1
-0.5439453125 -198.577148438 m 1
 -0.5439453125 -199.665039062 l 1
 293.192382812 -199.665039062 l 1
 293.192382812 -198.577148438 l 1
 -0.5439453125 -198.577148438 l 1
-0.5439453125 -199.665039062 m 1
 0.5439453125 -199.665039062 l 1
 0.5439453125 800.336914062 l 1
 -0.5439453125 800.336914062 l 1
 -0.5439453125 -199.665039062 l 1
292.104492188 -199.665039062 m 1
 293.192382812 -199.665039062 l 1
 293.192382812 800.336914062 l 1
 292.104492188 800.336914062 l 1
 292.104492188 -199.665039062 l 1
EndSplineSet
EndChar
